<?xml version="1.0" encoding="iso-8859-1"?>
<!-- Generator: Adobe Illustrator 19.0.0, SVG Export Plug-In . SVG Version: 6.00 Build 0)  -->
<svg xmlns="http://www.w3.org/2000/svg" xmlns:xlink="http://www.w3.org/1999/xlink" version="1.1" id="Layer_1" x="0px" y="0px" viewBox="0 0 511.998 511.998" style="enable-background:new 0 0 511.998 511.998;" xml:space="preserve" width="512px" height="512px">
<g>
	<g>
		<path d="M354.385,240.709c-5.007-5.007-11.665-7.764-18.746-7.764c-7.082,0-13.74,2.758-18.747,7.765l-7.992,7.993l-15.407-15.407    l7.994-7.993c10.335-10.336,10.335-27.155-0.001-37.493c-5.006-5.006-11.664-7.764-18.745-7.764    c-7.082,0-13.74,2.758-18.747,7.765l-7.992,7.992l-7.993-7.993c-5.007-5.006-11.666-7.764-18.746-7.764    s-13.739,2.758-18.746,7.764c-5.006,5.007-7.764,11.665-7.764,18.746c0,7.082,2.758,13.74,7.764,18.747l7.993,7.993    l-15.406,15.406l-7.993-7.994c-5.007-5.006-11.665-7.764-18.746-7.764s-13.739,2.758-18.746,7.764    c-10.336,10.337-10.336,27.156,0,37.493c5.006,5.007,11.664,7.766,18.746,7.766c7.082,0,13.74-2.759,18.745-7.765l7.994-7.993    l15.407,15.406l-7.993,7.992c-5.006,5.007-7.764,11.665-7.764,18.747c0,7.081,2.758,13.739,7.764,18.746    c5.007,5.006,11.665,7.764,18.746,7.764c7.081,0,13.739-2.758,18.746-7.764l7.993-7.993l7.993,7.993    c5.006,5.006,11.664,7.764,18.746,7.764c7.081,0,13.739-2.758,18.746-7.765c10.335-10.336,10.335-27.155-0.001-37.493    l-7.992-7.992l15.406-15.406l7.992,7.993c5.007,5.006,11.665,7.765,18.747,7.765c7.081,0,13.739-2.759,18.746-7.766    C364.721,267.865,364.721,251.046,354.385,240.709z M184.353,267.45c-2.134,2.134-4.973,3.311-7.992,3.311    s-5.857-1.176-7.992-3.312c-4.408-4.407-4.408-11.578,0-15.986c2.134-2.134,4.972-3.311,7.992-3.311s5.857,1.176,7.992,3.311    l7.994,7.993L184.353,267.45z M274.745,198.565c2.135-2.134,4.974-3.311,7.994-3.311c3.019,0,5.857,1.176,7.992,3.31    c4.407,4.408,4.407,11.579,0.001,15.987l-7.994,7.993l-15.986-15.986L274.745,198.565z M256,217.311l15.985,15.985l-15.986,15.986    l-15.985-15.984L256,217.311z M217.957,206.556c0-3.019,1.175-5.857,3.311-7.992c2.134-2.134,4.972-3.311,7.992-3.311    s5.857,1.176,7.992,3.311l7.994,7.993l-15.987,15.986l-7.992-7.993C219.133,212.415,217.957,209.576,217.957,206.556z     M213.855,259.456l15.406-15.406l15.985,15.985l-15.406,15.406L213.855,259.456z M237.252,320.347    c-2.134,2.135-4.972,3.311-7.991,3.311c-3.02,0-5.857-1.176-7.992-3.311c-2.135-2.134-3.311-4.973-3.311-7.992    c0-3.02,1.175-5.858,3.311-7.993l7.992-7.993l12.379,12.379l3.606,3.606L237.252,320.347z M256,301.601l-15.407-15.406    l15.406-15.406l15.406,15.406L256,301.601z M290.733,320.348c-2.135,2.134-4.974,3.311-7.993,3.311    c-3.02,0-5.858-1.176-7.993-3.31l-7.993-7.994l15.986-15.985l7.993,7.991C295.139,308.769,295.139,315.94,290.733,320.348z     M282.739,274.863l-0.579,0.579l-15.406-15.406l15.986-15.986l15.407,15.407L282.739,274.863z M343.631,267.449    c-2.134,2.135-4.973,3.312-7.992,3.312c-3.02,0-5.858-1.176-7.993-3.312l-7.993-7.992l7.992-7.993    c2.135-2.134,4.974-3.311,7.994-3.311c3.019,0,5.857,1.176,7.992,3.31C348.037,255.87,348.037,263.041,343.631,267.449z" fill="#FFFFFF"/>
	</g>
</g>
<g>
	<g>
		<path d="M379.329,145.003c-4.653-9.373-13.019-15.95-22.841-18.375v-10.952c0-4.294-0.402-8.492-1.133-12.579h11.176V87.89    h-15.679c-10.854-25.563-36.211-43.536-65.687-43.536h-3.208c2.43-4.311,3.823-9.281,3.823-14.572C285.78,13.36,272.421,0,256,0    c-16.42,0-29.78,13.36-29.78,29.78c0,5.291,1.394,10.261,3.823,14.572h-3.209c-29.476,0-54.832,17.974-65.687,43.536h-15.679    v15.208h11.176c-0.731,4.087-1.133,8.285-1.133,12.579v10.952c-9.821,2.425-18.188,9.002-22.841,18.377    c-7.457,15.026-16.346,40.832-16.346,78.438c0,88.098,51.406,275.062,53.595,282.977l1.542,5.578h169.088l1.538-5.586    c2.188-7.952,53.591-195.73,53.591-282.97C395.676,185.836,386.786,160.03,379.329,145.003z M256,15.208    c8.036,0,14.572,6.536,14.572,14.572S264.036,44.352,256,44.352c-8.036,0-14.572-6.536-14.572-14.572S247.964,15.208,256,15.208z     M226.834,59.56h58.329c20.837,0,39.043,11.424,48.722,28.328H178.112C187.791,70.984,205.998,59.56,226.834,59.56z     M170.719,115.677c0-4.325,0.508-8.533,1.439-12.579h167.684c0.931,4.047,1.439,8.254,1.439,12.579v9.906H170.719V115.677z     M328.932,496.792H183.063c-1.442-5.363-3.833-14.37-6.813-25.992h159.471C332.752,482.419,330.369,491.427,328.932,496.792z     M339.56,455.592H172.396c-0.771-3.08-1.566-6.283-2.38-9.582h171.917C341.123,449.309,340.33,452.511,339.56,455.592z     M166.313,430.802c-15.344-63.82-34.783-155.002-34.783-207.357c0-34.659,8.027-58.108,14.761-71.677    c3.36-6.771,10.138-10.976,17.687-10.976H348.02c7.549,0,14.327,4.206,17.687,10.975c6.734,13.57,14.761,37.02,14.761,71.678    c0.001,51.895-19.487,143.355-34.84,207.357H166.313z" fill="#FFFFFF"/>
	</g>
</g>
<g>
	<g>
		<polygon points="107.435,41.592 107.435,27.904 92.227,27.904 92.227,41.592 78.54,41.592 78.54,56.8 92.227,56.8 92.227,70.487     107.435,70.487 107.435,56.8 121.122,56.8 121.122,41.592   " fill="#FFFFFF"/>
	</g>
</g>
<g>
	<g>
		<polygon points="467.431,430.783 467.431,417.096 452.223,417.096 452.223,430.783 438.536,430.783 438.536,445.991     452.223,445.991 452.223,459.678 467.431,459.678 467.431,445.991 481.118,445.991 481.118,430.783   " fill="#FFFFFF"/>
	</g>
</g>
<g>
	<g>
		<polygon points="458.201,195.763 458.201,185.852 442.994,185.852 442.994,195.763 433.082,195.763 433.082,210.971     442.994,210.971 442.994,220.883 458.201,220.883 458.201,210.971 468.114,210.971 468.114,195.763   " fill="#FFFFFF"/>
	</g>
</g>
<g>
	<g>
		<polygon points="59.359,326.489 59.359,316.578 44.151,316.578 44.151,326.489 34.238,326.489 34.238,341.697 44.151,341.697     44.151,351.609 59.359,351.609 59.359,341.697 69.269,341.697 69.269,326.489   " fill="#FFFFFF"/>
	</g>
</g>
<g>
	<g>
		<rect x="488.973" y="74.042" width="15.421" height="15.208" fill="#FFFFFF"/>
	</g>
</g>
<g>
	<g>
		<rect x="369.784" y="20.297" width="15.421" height="15.208" fill="#FFFFFF"/>
	</g>
</g>
<g>
	<g>
		<rect x="7.604" y="180.042" width="15.421" height="15.208" fill="#FFFFFF"/>
	</g>
</g>
<g>
	<g>
		<rect x="412.67" y="326.484" width="15.421" height="15.208" fill="#FFFFFF"/>
	</g>
</g>
<g>
	<g>
		<rect x="121.043" y="435.19" width="15.421" height="15.208" fill="#FFFFFF"/>
	</g>
</g>
<g>
	<g>
		<rect x="23.13" y="488.975" width="15.208" height="15.421" fill="#FFFFFF"/>
	</g>
</g>
<g>
</g>
<g>
</g>
<g>
</g>
<g>
</g>
<g>
</g>
<g>
</g>
<g>
</g>
<g>
</g>
<g>
</g>
<g>
</g>
<g>
</g>
<g>
</g>
<g>
</g>
<g>
</g>
<g>
</g>
</svg>
