<?xml version="1.0" encoding="iso-8859-1"?>
<!-- Generator: Adobe Illustrator 19.0.0, SVG Export Plug-In . SVG Version: 6.00 Build 0)  -->
<svg version="1.1" id="Capa_1" xmlns="http://www.w3.org/2000/svg" xmlns:xlink="http://www.w3.org/1999/xlink" x="0px" y="0px"
	 viewBox="0 0 512 512" style="enable-background:new 0 0 512 512;" xml:space="preserve">
<path style="fill:#F8CD76;" d="M288.243,256h-64.486c-4.247,0-7.73,3.322-7.982,7.562C207.982,394.845,0,488,0,488v24h512v-24
	c0,0-207.982-93.155-215.775-224.438C295.973,259.322,292.491,256,288.243,256z"/>
<path style="fill:#F6C053;" d="M239.775,263.562c0-4.248,3.734-7.562,7.982-7.562h-24c-4.247,0-7.73,3.322-7.982,7.562
	C207.982,394.845,0,488,0,488v24h41.008C118.133,467.314,239.775,378.604,239.775,263.562z"/>
<path style="fill:#ED6D4A;" d="M247.757,256h-23.995c-4.237,0-7.736,3.305-7.978,7.536c-1.49,26.063-10.616,50.321-24.273,72.464
	H208v29.092c19.381-30.778,31.775-64.813,31.775-101.531C239.775,259.314,243.509,256,247.757,256z"/>
<g>
	<path style="fill:#F08568;" d="M223.227,383.982C232.415,384.415,240,377.093,240,368v-32v-7.548
		c0-8.616,6.621-16.029,15.227-16.434C264.415,311.585,272,318.907,272,328v8v23.548c0,8.616,6.621,16.029,15.227,16.434
		C296.415,376.415,304,369.093,304,360v-24h16.488c-13.657-22.144-22.782-46.402-24.273-72.464c-0.242-4.23-3.741-7.536-7.978-7.536
		h-40.481c-4.247,0-7.982,3.314-7.982,7.562c0,36.718-12.394,70.752-31.775,101.531v2.456
		C208,376.164,214.621,383.577,223.227,383.982z"/>
	<path style="fill:#F08568;" d="M256,232c-4.418,0-8-3.582-8-8v-48c0-4.418,3.582-8,8-8s8,3.582,8,8v48
		C264,228.418,260.418,232,256,232z"/>
</g>
<g>
	<path style="fill:#F6B6A4;" d="M288,192c-4.418,0-8-3.582-8-8v-24c0-4.418,3.582-8,8-8s8,3.582,8,8v24
		C296,188.418,292.418,192,288,192z"/>
	<path style="fill:#F6B6A4;" d="M224,208c-4.418,0-8-3.582-8-8v-28c0-4.418,3.582-8,8-8s8,3.582,8,8v28
		C232,204.418,228.418,208,224,208z"/>
</g>
<g>
	<path style="fill:#ECE9EE;" d="M408,72c0-22.056-17.944-40-40-40c-2.704,0-5.381,0.271-8.008,0.808
		C349.487,22.066,335.186,16,320,16c-5.465,0-10.832,0.784-16.016,2.336C290.771,6.475,273.921,0,256,0s-34.771,6.475-47.984,18.336
		C202.832,16.784,197.465,16,192,16c-15.186,0-29.487,6.066-39.992,16.808C149.381,32.271,146.704,32,144,32
		c-22.056,0-40,17.944-40,40s17.944,40,40,40c2.704,0,5.381-0.271,8.008-0.808C162.513,121.934,176.814,128,192,128
		c5.465,0,10.832-0.784,16.016-2.336C221.229,137.525,238.079,144,256,144s34.771-6.475,47.984-18.336
		C309.168,127.216,314.535,128,320,128c15.186,0,29.487-6.066,39.992-16.808c2.627,0.537,5.305,0.808,8.008,0.808
		C390.056,112,408,94.056,408,72z"/>
	<path style="fill:#ECE9EE;" d="M464,168c-2.454,0-4.876,0.379-7.186,1.106C449.444,158.503,437.311,152,424,152
		s-25.444,6.503-32.814,17.106c-2.31-0.728-4.732-1.106-7.186-1.106c-13.233,0-24,10.767-24,24s10.767,24,24,24
		c2.454,0,4.876-0.379,7.186-1.106C398.556,225.497,410.689,232,424,232s25.444-6.503,32.814-17.106
		c2.31,0.728,4.732,1.106,7.186,1.106c13.233,0,24-10.767,24-24S477.233,168,464,168z"/>
	<path style="fill:#ECE9EE;" d="M144,216c-2.454,0-4.876,0.379-7.186,1.106C129.444,206.503,117.311,200,104,200
		s-25.444,6.503-32.814,17.106C68.876,216.379,66.454,216,64,216c-13.233,0-24,10.767-24,24s10.767,24,24,24
		c2.454,0,4.876-0.379,7.186-1.106C78.556,273.497,90.689,280,104,280s25.444-6.503,32.814-17.106
		c2.31,0.728,4.732,1.106,7.186,1.106c13.233,0,24-10.767,24-24S157.233,216,144,216z"/>
</g>
<g>
	<path style="fill:#D9D3DE;" d="M280,136c-20.144,0-38.346-8.282-51.414-21.615c4.533-3.918,8.433-8.549,11.522-13.722
		c-4.836,3.663-10.287,6.552-16.166,8.5c-5.538,1.835-11.455,2.836-17.609,2.836c-3.725,0-7.363-0.372-10.884-1.066
		c-8.635-1.702-16.552-5.39-23.267-10.566c5.151-5.122,8.921-11.632,10.687-18.928l-17.83,12.38C160.952,95.229,156.567,96,152,96
		c-3.943,0-7.748-0.58-11.346-1.643C124.091,89.465,112,74.149,112,56c0-3.253,0.398-6.412,1.131-9.439
		C107.427,53.474,104,62.337,104,72c0,22.091,17.909,40,40,40c2.745,0,5.423-0.284,8.012-0.811C162.176,121.559,176.333,128,192,128
		c5.568,0,10.943-0.818,16.018-2.332C220.755,137.063,237.565,144,256,144c12.479,0,24.215-3.178,34.448-8.764
		C287.036,135.732,283.55,136,280,136z"/>
	<path style="fill:#D9D3DE;" d="M120,272c-15.015,0-28.09-8.278-34.931-20.515c-1.044-1.866-1.946-3.822-2.684-5.857
		C79.241,247.142,75.723,248,72,248c-2.586,0-5.074-0.414-7.407-1.17C54.964,243.708,48,234.669,48,224
		c0-0.66,0.034-1.312,0.086-1.958C43.128,226.438,40,232.852,40,240c0,13.255,10.745,24,24,24c2.512,0,4.931-0.392,7.207-1.108
		C78.438,273.231,90.425,280,104,280c9.663,0,18.526-3.427,25.44-9.131C126.412,271.602,123.253,272,120,272z"/>
	<path style="fill:#D9D3DE;" d="M440,224c-15.015,0-28.09-8.278-34.931-20.515c-1.044-1.866-1.946-3.822-2.684-5.857
		C399.241,199.142,395.723,200,392,200c-2.586,0-5.074-0.414-7.407-1.17C374.964,195.708,368,186.669,368,176
		c0-0.66,0.034-1.312,0.086-1.958C363.128,178.438,360,184.852,360,192c0,13.255,10.745,24,24,24c2.512,0,4.931-0.392,7.207-1.108
		C398.438,225.231,410.425,232,424,232c9.663,0,18.526-3.427,25.44-9.131C446.412,223.602,443.253,224,440,224z"/>
</g>
<g>
</g>
<g>
</g>
<g>
</g>
<g>
</g>
<g>
</g>
<g>
</g>
<g>
</g>
<g>
</g>
<g>
</g>
<g>
</g>
<g>
</g>
<g>
</g>
<g>
</g>
<g>
</g>
<g>
</g>
</svg>
