<?xml version="1.0" encoding="utf-8"?>
<!-- Generator: Adobe Illustrator 21.1.0, SVG Export Plug-In . SVG Version: 6.00 Build 0)  -->
<svg version="1.1"
	 id="svg2" inkscape:version="0.48.0 r9654" sodipodi:docname="Plankton.svg" xmlns:cc="http://creativecommons.org/ns#" xmlns:dc="http://purl.org/dc/elements/1.1/" xmlns:inkscape="http://www.inkscape.org/namespaces/inkscape" xmlns:rdf="http://www.w3.org/1999/02/22-rdf-syntax-ns#" xmlns:sodipodi="http://sodipodi.sourceforge.net/DTD/sodipodi-0.dtd" xmlns:svg="http://www.w3.org/2000/svg"
	 xmlns="http://www.w3.org/2000/svg" xmlns:xlink="http://www.w3.org/1999/xlink" x="0px" y="0px" viewBox="0 0 131 340.1"
	 style="enable-background:new 0 0 131 340.1;" xml:space="preserve">
<style type="text/css">
	.st0{fill:#FFFFFF;stroke:#000000;stroke-width:2;}
	.st1{fill:#FDFFFE;stroke:#000000;stroke-width:2;}
	.st2{fill:#070707;stroke:#000000;}
	.st3{fill:#F7F7F7;stroke:#FFFFFF;}
	.st4{fill:#070707;}
</style>
<sodipodi:namedview  bordercolor="#666666" borderopacity="1.0" fit-margin-bottom="0" fit-margin-left="0" fit-margin-right="0" fit-margin-top="0" id="base" inkscape:current-layer="layer3" inkscape:cx="36.4051" inkscape:cy="173.72209" inkscape:document-units="px" inkscape:pageopacity="0.0" inkscape:pageshadow="2" inkscape:window-height="675" inkscape:window-maximized="0" inkscape:window-width="1152" inkscape:window-x="0" inkscape:window-y="0" inkscape:zoom="1" pagecolor="#ffffff" showgrid="false">
	</sodipodi:namedview>
<g id="layer4" transform="translate(-275.45362,-356.14335)" inkscape:groupmode="layer" inkscape:label="BackAntenna">
	<path id="path3832" inkscape:connector-curvature="0" class="st0" d="M308,536.3c0,0-12-24.2-16.4-42.1s-8.9-44.6-9.7-55.4
		c-0.8-10.9,0.3-45.7,2.2-54.9s4.7-15,4.7-15s-4.7,22.8-5.3,30.6s-1.7,34.8,0.3,46c1.9,11.1,9.7,50.1,20.3,68.5
		c10.6,18.4,11.4,17.8,11.4,17.8L308,536.3z"/>
	<path id="path3834" inkscape:connector-curvature="0" d="M282.1,489.5l15.6-5.3l1.4,3.1l-15.3,6.1L282.1,489.5z"/>
	<path id="path3836" inkscape:connector-curvature="0" d="M278.8,466.4l12.8-4.2l1.4,4.2l-13.1,3.6L278.8,466.4z"/>
	<path id="path3838" inkscape:connector-curvature="0" d="M276.3,439.3l11.1-0.8l0.6,2.5l-12.5,0.3L276.3,439.3z"/>
	<path id="path3840" inkscape:connector-curvature="0" d="M275.7,409l11.4,0.6v3.1h-10.9L275.7,409z"/>
</g>
<g id="layer2" transform="translate(-275.45362,-356.14335)" inkscape:groupmode="layer" inkscape:label="Body">
	<path id="path3784" inkscape:connector-curvature="0" sodipodi:nodetypes="cssscsscssssscscssccsccsscscccssscssc" class="st1" d="
		M300.4,612.2c0,0-2-42.1-0.1-55.1c1.6-11.2,6.5-34,27.4-33.2c16.5,0.6,28.1,11.6,27.3,37.8c-0.9,29.7,1.2,43,1.2,43
		s16.5,5.6,20.1,12.9c3.6,7.2-0.8,8.4-5.2,12.4c-4.4,4-7.6,4.4-7.6,4.4s2.4,0,4.4,3.6s-4,4.8-6,2.8c-2-2-3.8-2.1-4-4
		c-0.4-3.5,1.6-4.8,5.6-8.8c5.5-5.5,6.8-7.6,1.6-10.4c-5.2-2.8-9.2-5.2-9.2-5.2s4.8,30.9,6.8,40.6s-0.8,14.5-0.8,14.5s3.2,3.2,8,8.4
		s6,12.9,2,10c-4-2.8-16.1-14.1-16.1-14.1l2.4,2c0,0-11.6,4-17.3,3.6s-9.2-2-9.2-2l1.9,0.9c0,0,0.1,2.4-0.3,8s0.5,16.4-3.2,8
		c-3.4-7.6-4.4-20.9-4.4-20.9s-15.3-21.7-16.5-30.9c-1.2-9.2-6-19.3-6-19.3l-11.6,6.4l2.4-1.6c0,0,5.6,4,9.6,6s7.2,5.6,4.8,8.4
		s-12,4-8.8,0s3.2-4.8,3.2-4.8s-13.3,0.4-16.5-5.2c-3.2-5.6,0.4-7.2,6-10.8S300.4,612.2,300.4,612.2L300.4,612.2z"/>
</g>
<g id="layer3" transform="translate(-275.45362,-356.14335)" inkscape:groupmode="layer" inkscape:label="Face/frontAntenna">
	<path id="path3787" inkscape:connector-curvature="0" class="st2" d="M314.8,626.8c0,0,13.3,1.4,20.4-2.3
		c7.2-3.7,13.7-11.6,13.7-11.6s0.5,17.1-2,20.9s-6.6,8.4-13.7,9.5s-13.3-2.1-13.3-2.1l3.4,1.7c0,0,0.9-6.3,0-9.8s-1.5-5.9-1.5-5.9
		L314.8,626.8z"/>
	<path id="path3791" inkscape:connector-curvature="0" class="st2" d="M344.4,610.9c0,0,2.7-0.2,4.6,1.5c1.8,1.7,2.6,3.2,2.6,3.2"/>
	<path id="path3793" inkscape:connector-curvature="0" class="st2" d="M324.1,635c0,0,7.6,0.2,13.1-2c5.5-2.1,11.3-5.3,11.3-5.3"/>
	<path id="path3797" inkscape:connector-curvature="0" class="st2" d="M328.4,626.6c0,0,1.1,5.3,1.7,8.8c0.6,3.5,0.9,8.2,0.9,8.2"/>
	<path id="path3799" inkscape:connector-curvature="0" class="st2" d="M335.1,624.8c0,0,1.7,5.2,2.3,8.8c0.6,3.7,1.7,7.8,1.7,7.8"/>
	<path id="path3801" inkscape:connector-curvature="0" class="st2" d="M341.8,620.3l3.2,15.9"/>
	<path id="path3803" inkscape:connector-curvature="0" class="st3" d="M327.7,574.2l-17.8,9c0,0,2.1,15.2,5.5,21s6.7,10.1,11.7,10.1
		c5,0,10.2-3.8,12.5-11.9s1.7-25.8,1.7-25.8L327.7,574.2z"/>
	
		<path id="path3805" sodipodi:cx="325.91464" sodipodi:cy="589.55731" sodipodi:rx="10.213414" sodipodi:ry="12.195122" sodipodi:type="arc" class="st4" d="
		M336.1,589.6c0,6.7-4.6,12.2-10.2,12.2s-10.2-5.5-10.2-12.2s4.6-12.2,10.2-12.2S336.1,582.8,336.1,589.6z"/>
	
		<path id="path3807" sodipodi:cx="325" sodipodi:cy="588.87134" sodipodi:rx="4.5731707" sodipodi:ry="5.5640244" sodipodi:type="arc" class="st4" d="
		M329.6,588c0,3.5-2.2,6.4-5,6.4s-5-2.9-5-6.4c0-3.5,2.2-6.4,5-6.4S329.6,584.5,329.6,588z"/>
	<path id="path3809" inkscape:connector-curvature="0" class="st2" d="M338.4,574.9c0,0,3-2,4.6,0.5s-8.1,7.8-16.3,8.4
		s-19.1,0.3-19.5-2.1c-0.5-2.4,2.7-3.5,2.7-3.5s0-11.1,4.6-17.7s7.2-7.9,11.9-6.6c4.7,1.4,8.7,5.6,11.9,12.2c3.2,6.6,3,8.2,3,8.2
		L338.4,574.9z"/>
	<path id="path3811" inkscape:connector-curvature="0" class="st2" d="M314.2,579c0,0,2,0.6,4.9,0.5c2.9-0.2,4.1-0.2,4.1-0.2"/>
	<path id="path3813" inkscape:connector-curvature="0" class="st4" d="M306.7,543.3c0,0,2.7-6.9,15.6-7c12.9-0.1,17.9,8.6,17.9,8.6
		s-0.7,2.1,0.6,3.2s1.2,3.1,1.2,3.1l-2.6-1.1c0,0-0.6,1,0.7,2.2c1.3,1.2,0.9,2.3,0.9,2.3s-5.8-7.7-13.6-7.2s-15.3,4.4-15.3,4.4
		s0.3-1.8,1.6-3.1c1.3-1.3,1.5-1.6,1.5-1.6l-5.7,0.5c0,0,0.8-2.3,2.1-3.1c1.3-0.8,1.7-1.3,1.7-1.3L306.7,543.3z"/>
	<path id="path3817" inkscape:connector-curvature="0" class="st4" d="M316.5,534.4c0,0,1.2-5.7,9.3-5.8c8.1-0.1,11,6.9,11,6.9
		s-2.5-4.2-11.1-4.2S316.5,534.4,316.5,534.4z"/>
	<path id="path3819" inkscape:connector-curvature="0" sodipodi:nodetypes="cssscssssc" class="st0" d="M338.4,528.2
		c0,0,2.1-39.5,6.2-52.7c4.1-13.2,7.7-31.8,15.4-48s15.4-31.4,20.5-39.1s24.9-31.2,24.9-31.2s-19.2,26.6-27.3,40.1
		c-8.1,13.6-12.6,25.5-17,35.4c-3.1,7.1-6.6,22.7-9.3,35.9c-2.8,13.4-3.6,27.1-4.3,45.6s-1.2,20.7-1.2,20.7"/>
	<path id="path3821" inkscape:connector-curvature="0" class="st4" d="M340.1,470.1v4.9l15.6,1l-0.2-4.3L340.1,470.1z"/>
	<path id="path3823" inkscape:connector-curvature="0" class="st4" d="M346.8,445.8l14,3.4l-0.8,4l-14-3.8L346.8,445.8z"/>
	<path id="path3825" inkscape:connector-curvature="0" class="st4" d="M357.9,417.2l11.9,5.9l-1.2,3.8l-11.9-5.3L357.9,417.2z"/>
	<path id="path3827" inkscape:connector-curvature="0" class="st4" d="M372.3,390.3l11.1,5.1L382,399l-11.5-6.7L372.3,390.3z"/>
</g>
</svg>
