<?xml version="1.0" encoding="iso-8859-1"?>
<!-- Generator: Adobe Illustrator 19.0.0, SVG Export Plug-In . SVG Version: 6.00 Build 0)  -->
<svg version="1.1" id="Layer_1" xmlns="http://www.w3.org/2000/svg" xmlns:xlink="http://www.w3.org/1999/xlink" x="0px" y="0px"
	 viewBox="0 0 512 512" style="enable-background:new 0 0 512 512;" xml:space="preserve">
<path style="fill:#FF6F43;" d="M450.633,33.978L389.582,1.75c-7.378-3.895-16.517-1.071-20.412,6.308l-20.608,39.041
	c-5.806,11-5.838,24.151-0.085,35.179c5.754,11.028,5.723,24.179-0.085,35.179l-39.819,75.436
	c-4.255,8.061-1.722,18.268,6.131,22.897c8.383,4.944,19.097,1.839,23.588-6.67l40.043-75.859c5.807-11,16.647-18.445,28.999-19.917
	c12.352-1.471,23.192-8.917,28.999-19.917l20.608-39.041C460.835,47.01,458.012,37.872,450.633,33.978z M414.266,74.796
	c-3.284,6.221-9.416,10.433-16.401,11.264h-0.001c-8.834,1.052-17.398-3.468-21.514-11.355l0,0
	c-3.254-6.238-3.237-13.676,0.047-19.897l11.605-21.986L425.87,52.81L414.266,74.796z"/>
<polygon style="fill:#1EB8E8;" points="115.712,255.485 145.005,498.168 364.805,498.168 394.098,255.485 254.905,237.236 "/>
<polygon style="opacity:0.1;enable-background:new    ;" points="275.56,239.945 254.905,237.237 115.712,255.485 145.006,498.168 
	186.317,498.168 157.023,255.485 "/>
<g>
	<path style="fill:#FFCA28;" d="M210.7,338.939h-44.71c-3.263,0-6.175-2.044-7.284-5.112l-27.373-75.708
		c-1.454-4.023,0.628-8.464,4.651-9.918c4.025-1.455,8.464,0.628,9.919,4.651l25.524,70.596H210.7c4.278,0,7.746,3.468,7.746,7.746
		C218.446,335.471,214.978,338.939,210.7,338.939z"/>
	<path style="fill:#FFCA28;" d="M343.819,338.939h-44.709c-4.278,0-7.746-3.468-7.746-7.746c0-4.278,3.468-7.746,7.746-7.746h39.272
		l25.525-70.596c1.455-4.023,5.895-6.105,9.919-4.651c4.023,1.454,6.105,5.895,4.651,9.918l-27.373,75.708
		C349.994,336.895,347.081,338.939,343.819,338.939z"/>
</g>
<rect x="210.696" y="311.474" style="fill:#FF6F43;" width="88.415" height="39.441"/>
<path style="fill:#FFCA28;" d="M332.625,178.212c-47.104-31.244-108.338-31.244-155.44,0l-61.473,40.776l139.193,18.248
	l139.193-18.248L332.625,178.212z"/>
<path style="opacity:0.1;enable-background:new    ;" d="M157.023,218.988l61.473-40.775c17.547-11.64,37.057-18.936,57.065-21.904
	c-33.701-4.998-68.82,2.299-98.376,21.904l-61.473,40.775l139.193,18.248l20.655-2.708L157.023,218.988z"/>
<path style="fill:#FFCA28;" d="M1.878,512c57.554-29.033,149.951-47.857,254.122-47.857c104.17,0,196.567,18.823,254.121,47.857
	H1.878z"/>
<g style="opacity:0.1;">
	<path d="M183.942,467.238C109.832,473.694,45.734,489.878,1.878,512h61.966C94.924,492.897,136.176,477.433,183.942,467.238z"/>
</g>
<path style="fill:#8FE5F7;" d="M394.098,218.988H115.712c-10.079,0-18.248,8.17-18.248,18.248l0,0
	c0,10.079,8.17,18.248,18.248,18.248h278.385c10.079,0,18.248-8.17,18.248-18.248l0,0
	C412.347,227.158,404.176,218.988,394.098,218.988z"/>
<path style="opacity:0.1;enable-background:new    ;" d="M138.775,237.237L138.775,237.237c0-10.079,8.17-18.248,18.249-18.248
	h-41.311c-10.079,0-18.249,8.17-18.249,18.248l0,0c0,10.078,8.17,18.248,18.249,18.248h41.311
	C146.945,255.485,138.775,247.315,138.775,237.237z"/>
<g>
</g>
<g>
</g>
<g>
</g>
<g>
</g>
<g>
</g>
<g>
</g>
<g>
</g>
<g>
</g>
<g>
</g>
<g>
</g>
<g>
</g>
<g>
</g>
<g>
</g>
<g>
</g>
<g>
</g>
</svg>
