<?xml version="1.0" encoding="iso-8859-1"?>
<!-- Generator: Adobe Illustrator 18.1.1, SVG Export Plug-In . SVG Version: 6.00 Build 0)  -->
<svg xmlns="http://www.w3.org/2000/svg" xmlns:xlink="http://www.w3.org/1999/xlink" version="1.1" id="Capa_1" x="0px" y="0px" viewBox="0 0 473.842 473.842" style="enable-background:new 0 0 473.842 473.842;" xml:space="preserve" width="512px" height="512px">
<g>
	<g>
		<path d="M151.157,138.246c6.503-18.744,4.747-36.936-2.357-55.209    c-7.901-20.297-18.289-33.937-3.755-53.738c15.534-21.167-19.761-41.407-35.091-20.517c-13.12,17.875-16.729,37.229-11.12,58.631    c5.527,21.086,20.988,37.391,13.136,60.021C103.353,152.268,142.622,162.843,151.157,138.246z" fill="#FFFFFF"/>
		<path d="M224.314,138.246c6.503-18.744,4.747-36.936-2.357-55.209    c-7.901-20.297-18.289-33.937-3.755-53.738c15.534-21.167-19.761-41.407-35.091-20.517c-13.12,17.875-16.729,37.229-11.12,58.631    c5.527,21.086,20.988,37.391,13.136,60.021C176.51,152.268,215.779,162.843,224.314,138.246z" fill="#FFFFFF"/>
		<path d="M297.471,138.246c6.503-18.744,4.747-36.936-2.357-55.209    c-7.901-20.297-18.289-33.937-3.755-53.738c15.534-21.167-19.761-41.407-35.091-20.517c-13.119,17.875-16.729,37.229-11.12,58.631    c5.527,21.086,20.988,37.391,13.136,60.021C249.667,152.268,288.936,162.843,297.471,138.246z" fill="#FFFFFF"/>
	</g>
</g>
<g>
</g>
<g>
</g>
<g>
</g>
<g>
</g>
<g>
</g>
<g>
</g>
<g>
</g>
<g>
</g>
<g>
</g>
<g>
</g>
<g>
</g>
<g>
</g>
<g>
</g>
<g>
</g>
<g>
</g>
</svg>
