<?xml version="1.0" encoding="iso-8859-1"?>
<!-- Generator: Adobe Illustrator 19.0.0, SVG Export Plug-In . SVG Version: 6.00 Build 0)  -->
<svg version="1.1" id="Capa_1" xmlns="http://www.w3.org/2000/svg" xmlns:xlink="http://www.w3.org/1999/xlink" x="0px" y="0px"
	 viewBox="0 0 511.996 511.996" style="enable-background:new 0 0 511.996 511.996;" xml:space="preserve">
<path style="fill:#E65848;" d="M358.396,51.199c-56.549,0-102.398,45.849-102.398,102.398s45.849,102.398,102.398,102.398
	s102.398-45.849,102.398-102.398C460.735,97.074,414.929,51.259,358.396,51.199z"/>
<path style="fill:#0B9FBD;" d="M469.328,230.396H443.37c-4.497-53.025-48.818-93.797-102.04-93.865h-0.085
	c-2.355-58.862-51.976-104.668-110.846-102.313c-55.551,2.227-100.086,46.753-102.313,102.313H89.601
	c-49.484,0-89.599,40.115-89.599,89.598s40.115,89.599,89.599,89.599h379.727c23.56,0,42.666-19.106,42.666-42.666
	S492.896,230.396,469.328,230.396z"/>
<g>
	<rect x="349.863" style="fill:#FDC536;" width="17.066" height="34.133"/>
	<rect x="477.861" y="145.064" style="fill:#FDC536;" width="34.133" height="17.066"/>
	
		<rect x="438.4" y="46.926" transform="matrix(-0.7071 0.7071 -0.7071 -0.7071 818.5145 -228.1213)" style="fill:#FDC536;" width="36.206" height="17.066"/>
	<path style="fill:#FDC536;" d="M323.487,380.427c-1.391-3.029-4.42-4.966-7.757-4.966h-36.13l17.843-29.738
		c2.423-4.036,1.118-9.284-2.918-11.708c-1.323-0.802-2.842-1.22-4.395-1.22h-51.199c-2.944,0-5.675,1.519-7.236,4.011
		l-42.666,68.266c-2.5,3.993-1.28,9.258,2.714,11.759c1.357,0.845,2.927,1.297,4.523,1.297h39.014l-29.969,82.414
		c-1.613,4.429,0.666,9.327,5.094,10.94c3.345,1.22,7.1,0.23,9.412-2.475L322.215,389.54
		C324.383,387.014,324.878,383.456,323.487,380.427z"/>
</g>
<g>
	<path style="fill:#3CB2CA;" d="M126.959,353.829l-18.526-18.534c-3.388-3.2-8.678-3.2-12.066,0l-18.526,18.534
		c-12.757,12.757-12.757,33.442,0,46.199c6.127,6.127,14.438,9.566,23.099,9.566h2.927c18.039,0,32.665-14.617,32.665-32.665
		c0-8.661-3.439-16.973-9.566-23.099H126.959z"/>
	<path style="fill:#3CB2CA;" d="M434.154,345.296l-18.526-18.534c-3.388-3.2-8.678-3.2-12.066,0l-18.526,18.534
		c-12.757,12.757-12.757,33.442,0,46.199c6.127,6.127,14.438,9.566,23.099,9.566h2.927c18.039,0,32.665-14.617,32.665-32.665
		C443.737,359.734,440.298,351.422,434.154,345.296L434.154,345.296z"/>
	<path style="fill:#3CB2CA;" d="M92.826,447.694L74.301,429.16c-3.388-3.2-8.678-3.2-12.066,0l-18.526,18.534
		c-12.757,12.757-12.757,33.442,0,46.199c6.127,6.127,14.438,9.566,23.099,9.566h2.927c18.039,0,32.665-14.617,32.665-32.665
		c0-8.661-3.439-16.973-9.566-23.099H92.826z"/>
	<path style="fill:#3CB2CA;" d="M400.021,456.227l-18.526-18.534c-3.388-3.2-8.678-3.2-12.066,0l-18.526,18.534
		c-12.757,12.757-12.757,33.442,0,46.199c6.127,6.127,14.438,9.566,23.099,9.566h2.927c18.039,0,32.665-14.617,32.665-32.665
		C409.604,470.665,406.165,462.354,400.021,456.227L400.021,456.227z"/>
</g>
<g>
</g>
<g>
</g>
<g>
</g>
<g>
</g>
<g>
</g>
<g>
</g>
<g>
</g>
<g>
</g>
<g>
</g>
<g>
</g>
<g>
</g>
<g>
</g>
<g>
</g>
<g>
</g>
<g>
</g>
</svg>
