<?xml version="1.0" encoding="iso-8859-1"?>
<!-- Generator: Adobe Illustrator 19.0.0, SVG Export Plug-In . SVG Version: 6.00 Build 0)  -->
<svg version="1.1" id="Capa_1" xmlns="http://www.w3.org/2000/svg" xmlns:xlink="http://www.w3.org/1999/xlink" x="0px" y="0px"
	 viewBox="0 0 512 512" style="enable-background:new 0 0 512 512;" xml:space="preserve">
<g transform="matrix(1.25 0 0 -1.25 0 45)">
	<g>
		<g>
			<g>
				<path style="fill:#77B255;" d="M111.98-105.323c0-111.98,74.809-110.057,58.687-114.665
					c-79.644-22.756-100.17,86.676-107.679,86.676C35.931-133.313,0-128.5,0-105.323c0,23.199,27.989,56.001,69.985,56.001
					C97.041-49.322,111.98-82.124,111.98-105.323"/>
				<path style="fill:#77B255;" d="M409.6-204.515c0-12.561-40.027,8.431-56.889,0c-22.756-11.378-22.756,10.194-22.756,22.756
					s15.28,11.378,34.133,11.378C382.942-170.382,409.6-191.954,409.6-204.515"/>
				<path style="fill:#77B255;" d="M190.18-255.772c0-31.414-14.552-32.506-32.506-32.506c-17.965,0-32.518,1.092-32.518,32.506
					c0,5.564,0.967,11.708,2.662,18.057c7.862,29.468,31.334,63.215,46.103,63.215C191.875-174.5,190.18-224.358,190.18-255.772"/>
				<path style="fill:#77B255;" d="M287.698-255.772c0-31.414,14.541-32.506,32.495-32.506c17.966,0,32.518,1.092,32.518,32.506
					c0,5.564-0.967,11.708-2.674,18.057c-7.851,29.468-31.323,63.215-46.091,63.215C285.992-174.5,287.698-224.358,287.698-255.772"
					/>
			</g>
			<path style="fill:#3E721D;" d="M364.089-185.878c0-45.511-58.584-45.511-130.844-45.511s-130.844,0-130.844,45.511
				c0,75.401,58.584,136.533,130.844,136.533S364.089-110.478,364.089-185.878"/>
			<path style="fill:#292F33;" d="M68.267-83.478c0-6.292-5.097-11.378-11.378-11.378S45.511-89.77,45.511-83.478
				c0,6.292,5.097,11.378,11.378,11.378S68.267-77.186,68.267-83.478"/>
			<g>
				<path style="fill:#5C913B;" d="M269.278-164.26c0-40.858-16.134-44.373-36.033-44.373s-36.033,3.516-36.033,44.373
					c0,40.846,16.134,92.16,36.033,92.16S269.278-123.414,269.278-164.26"/>
				<path style="fill:#5C913B;" d="M341.333-151.745c9.91-39.617-8.92-45.511-28.82-45.511c-19.9,0-28.82-7.851-28.82,32.996
					s-12.709,73.956,7.191,73.956C310.784-90.305,329.956-106.234,341.333-151.745"/>
				<path style="fill:#5C913B;" d="M182.841-164.26c0-40.858-8.932-32.996-28.831-32.996s-38.719,5.882-28.82,45.511
					c11.378,45.511,36.989,61.44,56.889,61.44C201.99-90.305,182.841-123.414,182.841-164.26"/>
			</g>
		</g>
	</g>
</g>
<g>
</g>
<g>
</g>
<g>
</g>
<g>
</g>
<g>
</g>
<g>
</g>
<g>
</g>
<g>
</g>
<g>
</g>
<g>
</g>
<g>
</g>
<g>
</g>
<g>
</g>
<g>
</g>
<g>
</g>
</svg>
